<svg width="40" height="40" viewBox="0 0 40 40" fill="none" xmlns="http://www.w3.org/2000/svg">
<rect width="40" height="40" rx="10.3704" fill="#005563"/>
<path d="M16.1729 19.3715C15.067 19.3715 14.0617 18.9467 13.3047 18.2563V25.484C13.3047 27.0653 14.588 28.3456 16.1729 28.3456C17.7579 28.3456 19.0412 27.0653 19.0412 25.484V18.2563C18.2842 18.9467 17.2788 19.3715 16.1729 19.3715Z" fill="white"/>
<path d="M16.1729 17.4067C17.757 17.4067 19.0412 16.1256 19.0412 14.5452C19.0412 12.9648 17.757 11.6836 16.1729 11.6836C14.5888 11.6836 13.3047 12.9648 13.3047 14.5452C13.3047 16.1256 14.5888 17.4067 16.1729 17.4067Z" fill="white"/>
<path d="M23.8292 20.6577C24.9351 20.6577 25.9404 21.0825 26.6974 21.7728V14.5452C26.6974 12.9639 25.4141 11.6836 23.8292 11.6836C22.2443 11.6836 20.9609 12.9639 20.9609 14.5452V21.7728C21.7179 21.0825 22.7233 20.6577 23.8292 20.6577Z" fill="white"/>
<path d="M23.8292 28.3452C25.4133 28.3452 26.6974 27.064 26.6974 25.4836C26.6974 23.9032 25.4133 22.6221 23.8292 22.6221C22.2451 22.6221 20.9609 23.9032 20.9609 25.4836C20.9609 27.064 22.2451 28.3452 23.8292 28.3452Z" fill="white"/>
</svg>
